<?xml version="1.0" standalone="no"?>
<!DOCTYPE svg PUBLIC "-//W3C//DTD SVG 20010904//EN"
 "http://www.w3.org/TR/2001/REC-SVG-20010904/DTD/svg10.dtd">
<svg version="1.0" xmlns="http://www.w3.org/2000/svg"
 width="512.000000pt" height="512.000000pt" viewBox="0 0 512.000000 512.000000"
 preserveAspectRatio="xMidYMid meet">
<metadata>
Created by potrace 1.14, written by Peter Selinger 2001-2017
</metadata>
<g transform="translate(0.000000,512.000000) scale(0.100000,-0.100000)"
fill="#000000" stroke="none">
<path d="M1010 5103 c-111 -38 -207 -131 -253 -243 l-22 -55 0 -2245 0 -2245
23 -58 c46 -113 141 -202 257 -241 47 -15 176 -16 1565 -14 l1515 3 60 30
c116 58 199 166 225 290 7 34 9 767 8 2265 l-3 2215 -23 58 c-31 76 -88 146
-153 189 -112 73 17 68 -1653 67 -1330 0 -1506 -2 -1546 -16z m2273 -150
c-398 -2 -1048 -2 -1445 0 -398 1 -73 2 722 2 795 0 1120 -1 723 -2z m-2283
-46 c0 -2 -12 -14 -27 -28 l-28 -24 24 28 c23 25 31 32 31 24z m3150 -22 c13
-14 21 -25 18 -25 -2 0 -15 11 -28 25 -13 14 -21 25 -18 25 2 0 15 -11 28 -25z
m-3243 -137 c-3 -8 -6 -5 -6 6 -1 11 2 17 5 13 3 -3 4 -12 1 -19z m2321 -65
c-368 -2 -968 -2 -1335 0 -368 1 -67 2 667 2 734 0 1035 -1 668 -2z m562 -598
l0 -435 -1230 0 -1230 0 0 435 0 435 1230 0 1230 0 0 -435z m-562 -602 c-368
-2 -968 -2 -1335 0 -368 1 -67 2 667 2 734 0 1035 -1 668 -2z m-1408 -788 l0
-135 -240 0 -240 0 0 135 0 135 240 0 240 0 0 -135z m980 0 l0 -135 -240 0
-240 0 0 135 0 135 240 0 240 0 0 -135z m980 0 l0 -135 -240 0 -240 0 0 135 0
135 240 0 240 0 0 -135z m-2022 -302 c-98 -2 -258 -2 -355 0 -98 1 -18 2 177
2 195 0 275 -1 178 -2z m980 0 c-98 -2 -258 -2 -355 0 -98 1 -18 2 177 2 195
0 275 -1 178 -2z m980 0 c-98 -2 -258 -2 -355 0 -98 1 -18 2 177 2 195 0 275
-1 178 -2z m-1971 -160 c-98 -2 -256 -2 -350 0 -95 1 -14 3 178 2 193 0 270
-1 172 -2z m986 0 c-95 -2 -251 -2 -345 0 -95 1 -18 3 172 3 190 0 267 -2 173
-3z m984 0 c-98 -2 -256 -2 -350 0 -95 1 -14 3 178 2 193 0 270 -1 172 -2z
m-1897 -408 l0 -245 -240 0 -240 0 0 245 0 245 240 0 240 0 0 -245z m980 0 l0
-245 -240 0 -240 0 0 245 0 245 240 0 240 0 0 -245z m980 -490 l0 -735 -240 0
-240 0 0 735 0 735 240 0 240 0 0 -735z m-2022 78 c-98 -2 -258 -2 -355 0 -98
1 -18 2 177 2 195 0 275 -1 178 -2z m980 0 c-98 -2 -258 -2 -355 0 -98 1 -18
2 177 2 195 0 275 -1 178 -2z m-985 -160 c-95 -2 -251 -2 -345 0 -95 1 -18 3
172 3 190 0 267 -2 173 -3z m980 0 c-95 -2 -251 -2 -345 0 -95 1 -18 3 172 3
190 0 267 -2 173 -3z m-913 -408 l0 -245 -240 0 -240 0 0 245 0 245 240 0 240
0 0 -245z m980 0 l0 -245 -240 0 -240 0 0 245 0 245 240 0 240 0 0 -245z
m-1042 -412 c-98 -2 -258 -2 -355 0 -98 1 -18 2 177 2 195 0 275 -1 178 -2z
m980 0 c-98 -2 -258 -2 -355 0 -98 1 -18 2 177 2 195 0 275 -1 178 -2z m980 0
c-98 -2 -258 -2 -355 0 -98 1 -18 2 177 2 195 0 275 -1 178 -2z m-2811 -75
c-3 -8 -6 -5 -6 6 -1 11 2 17 5 13 3 -3 4 -12 1 -19z m73 -123 c13 -14 21 -25
18 -25 -2 0 -15 11 -28 25 -13 14 -21 25 -18 25 2 0 15 -11 28 -25z m3190 22
c0 -2 -12 -14 -27 -28 l-28 -24 24 28 c23 25 31 32 31 24z m-887 -94 c-398 -2
-1048 -2 -1445 0 -398 1 -73 2 722 2 795 0 1120 -1 723 -2z"/>
</g>
</svg>
